<svg xmlns="http://www.w3.org/2000/svg" width="60" height="60" viewBox="0 0 60 60">
    <g fill="none" fill-rule="evenodd">
        <path fill="#B00015" d="M0 0h60v60H0z"/>
        <path d="M10 10h40v40H10z"/>
        <path fill="#FFF" d="M21.033 27.983c2.4 4.717 6.267 8.567 10.984 10.984l3.666-3.667c.45-.45 1.117-.6 1.7-.4 1.867.617 3.884.95 5.95.95.917 0 1.667.75 1.667 1.667v5.816C45 44.25 44.25 45 43.333 45 27.683 45 15 32.317 15 16.667c0-.917.75-1.667 1.667-1.667H22.5c.917 0 1.667.75 1.667 1.667 0 2.083.333 4.083.95 5.95.183.583.05 1.233-.417 1.7l-3.667 3.666z"/>
    </g>
</svg>
