<?xml version="1.0" encoding="UTF-8"?>
<svg width="35px" height="33px" viewBox="0 0 35 33" version="1.1" xmlns="http://www.w3.org/2000/svg" xmlns:xlink="http://www.w3.org/1999/xlink">
    <!-- Generator: sketchtool 49.3 (51167) - http://www.bohemiancoding.com/sketch -->
    <title>5C7ED3EB-0887-4EE3-8535-05434E590CA0</title>
    <desc>Created with sketchtool.</desc>
    <defs></defs>
    <g id="Symbols" stroke="none" stroke-width="1" fill="none" fill-rule="evenodd">
        <g id="Footer-Full" transform="translate(-1253.000000, -761.000000)" fill="#8B949D">
            <g id="Footer" transform="translate(0.000000, 342.000000)">
                <g id="Redstar-DA" transform="translate(1097.000000, 416.000000)">
                    <path d="M173.266765,3.17923529 L176.301471,12.5981471 L170.228824,12.5981471 L173.266765,3.17923529 Z M183.865588,35.7994118 L175.880882,29.972 L180.792059,26.4144706 L183.865588,35.7994118 Z M179.096765,15.6645588 L190.417059,15.6393235 L179.785882,23.3441765 L173.266765,28.0631765 L162.667941,35.7994118 L166.750882,23.3286471 L156.116471,15.6393235 L168.342647,15.6742647 L179.096765,15.6645588 Z M177.695882,20.4450294 L179.375,19.2324412 L179.096765,19.2330882 L167.158529,19.2330882 L168.834412,20.4450294 L170.940588,21.9672353 L169.481471,26.4186765 L173.231176,23.6987647 L175.592941,21.9659412 L177.695882,20.4450294 Z" id="Combined-Shape"></path>
                </g>
            </g>
        </g>
    </g>
</svg>