<?xml version="1.0" encoding="UTF-8"?>
<svg width="35px" height="31px" viewBox="0 0 35 31" version="1.1" xmlns="http://www.w3.org/2000/svg" xmlns:xlink="http://www.w3.org/1999/xlink">
    <!-- Generator: Sketch 49.3 (51167) - http://www.bohemiancoding.com/sketch -->
    <title>quote</title>
    <desc>Created with Sketch.</desc>
    <defs></defs>
    <g id="Design" stroke="none" stroke-width="1" fill="none" fill-rule="evenodd" opacity="0.1">
        <g id="Article" transform="translate(-385.000000, -3181.000000)" fill="#29405B">
            <g id="Quote" transform="translate(385.000000, 3181.000000)">
                <path d="M5.46041255,0.72265625 L9.25487895,0.72265625 C11.0730699,0.72265625 12.3378793,1.05862127 13.0493454,1.73056139 C13.7608114,2.40250151 14.1560643,3.64754834 14.2351161,5.46573925 L14.2351161,12.3432096 C14.1560643,19.1416626 12.4169513,25.2680835 9.0177248,30.7226562 L2.61456275,29.0625772 C3.48413231,25.2680918 3.99796117,20.762208 4.15606472,15.5447906 C1.46830425,15.5447906 0.12444417,14.2009306 0.12444417,11.5131701 L0.12444417,5.46573925 C0.203495949,3.72660012 0.658036858,2.50131593 1.48808053,1.78984993 C2.31812421,1.07838392 3.64222164,0.72265625 5.46041255,0.72265625 L5.46041255,0.72265625 Z M25.7370924,0.72265625 L29.5315588,0.72265625 C31.4288015,0.72265625 32.7331363,1.05862127 33.4446023,1.73056139 C34.1560683,2.40250151 34.5117959,3.64754834 34.5117959,5.46573925 L34.5117959,12.3432096 C34.4327442,19.1416626 32.6936311,25.2680835 29.2944046,30.7226562 L22.8912426,29.0625772 C23.9189157,24.7147294 24.4327446,20.2088456 24.4327446,15.5447906 C21.6659323,15.5447906 20.3615975,14.2009306 20.5197011,11.5131701 L20.5197011,5.46573925 C20.5987529,3.72660012 21.0335311,2.50131593 21.8240489,1.78984993 C22.6145667,1.07838392 23.9189015,0.72265625 25.7370924,0.72265625 L25.7370924,0.72265625 Z" id="quote" transform="translate(17.318120, 15.722656) rotate(-180.000000) translate(-17.318120, -15.722656) "></path>
            </g>
        </g>
    </g>
</svg>